<?xml version="1.0" encoding="utf-8"?>
<!-- Generator: Adobe Illustrator 22.0.1, SVG Export Plug-In . SVG Version: 6.00 Build 0)  -->
<svg version="1.1" id="Layer_1" xmlns="http://www.w3.org/2000/svg" xmlns:xlink="http://www.w3.org/1999/xlink" x="0px" y="0px"
	 viewBox="0 0 374 437" style="enable-background:new 0 0 374 437;" xml:space="preserve">
<style type="text/css">
	.st0{clip-path:url(#SVGID_2_);fill:#F58220;}
</style>
<g>
	<g>
		<g>
			<defs>
				<rect id="SVGID_1_" x="32.6" y="35.4" width="308.9" height="366.1"/>
			</defs>
			<clipPath id="SVGID_2_">
				<use xlink:href="#SVGID_1_"  style="overflow:visible;"/>
			</clipPath>
			<path class="st0" d="M332.7,94.8L192.6,36.6c-3.5-1.4-7.4-1.4-10.9,0L41.5,94.8c-5.4,2.2-8.9,7.4-8.9,13.2v70.7
				c0,97.4,58.9,185,149,221.8c3.4,1.4,7.4,1.4,10.8,0c90.2-36.8,149.1-124.4,149.1-221.8V108C341.5,102.2,338,97,332.7,94.8
				 M312.9,178.7c0,82.8-48.6,159-125.8,193c-75.2-33.1-125.8-108-125.8-193v-61.2l125.8-52.3l125.8,52.2V178.7z M171.3,226.9
				l61.5-61.5c5.5-5.5,14.7-5.5,20.2,0c5.5,5.5,5.5,14.7,0,20.2l-71.7,71.6c-5.5,5.5-14.7,5.5-20.2,0l-39.9-39.9
				c-5.5-5.5-5.5-14.7,0-20.2s14.7-5.5,20.2,0L171.3,226.9z"/>
		</g>
	</g>
</g>
</svg>
