<?xml version="1.0" encoding="utf-8"?>
<!-- Generator: Adobe Illustrator 22.0.1, SVG Export Plug-In . SVG Version: 6.00 Build 0)  -->
<svg version="1.1" id="Layer_1" xmlns="http://www.w3.org/2000/svg" xmlns:xlink="http://www.w3.org/1999/xlink" x="0px" y="0px"
	 viewBox="0 0 519 442" style="enable-background:new 0 0 519 442;" xml:space="preserve">
<style type="text/css">
	.st0{clip-path:url(#SVGID_2_);fill:#F58220;}
	.st1{clip-path:url(#SVGID_2_);fill:none;stroke:#F58220;stroke-width:7;stroke-miterlimit:10;}
	.st2{clip-path:url(#SVGID_2_);fill:none;stroke:#F58220;stroke-width:11;stroke-miterlimit:10;}
	.st3{clip-path:url(#SVGID_2_);fill:none;stroke:#F58220;stroke-width:0.5;stroke-miterlimit:10;}
</style>
<g>
	<defs>
		<rect id="SVGID_1_" width="519" height="442"/>
	</defs>
	<clipPath id="SVGID_2_">
		<use xlink:href="#SVGID_1_"  style="overflow:visible;"/>
	</clipPath>
	<path class="st0" d="M479.7,252l-13.3-53c3.6-0.8,6.3-4,6.3-7.8v-8.6c0-18.6-15.1-33.7-33.7-33.7h-60.4v-17.6
		c0-9.1-7.4-16.6-16.6-16.6H249.8l68.2-27.3c4.1-1.6,6.1-6.3,4.5-10.4c-1.6-4.1-6.3-6.1-10.4-4.5l-55.9,22.3
		c17-10.9,33.9-22.9,40.3-31.4c12.5-16.4,9.3-39.8-7-52.3c-16.4-12.5-39.8-9.3-52.3,7c-9.1,12-21.2,45.6-28.9,69.3
		c-7.8-23.7-19.8-57.3-28.9-69.3c-12.5-16.4-36-19.5-52.3-7c-16.4,12.5-19.5,36-7,52.3c6.4,8.4,23.3,20.4,40.3,31.4l-55.9-22.3
		c-4.1-1.6-8.8,0.4-10.4,4.5c-1.6,4.1,0.4,8.8,4.5,10.4l68.2,27.3H54.3c-9.1,0-16.6,7.4-16.6,16.6v145.4c0,4.4,3.6,8,8,8
		c4.4,0,8-3.6,8-8V131.2c0-0.3,0.2-0.5,0.5-0.5h307.8c0.3,0,0.5,0.2,0.5,0.5v145.4c0,4.4,3.6,8,8,8c4.4,0,8-3.6,8-8v-9.1h94.6
		c0,0,0,0,0,0s0,0,0,0c11.6,0,21.5,7.6,24.9,18.2h-24.9c-4.4,0-8,3.6-8,8v17.1c0,13.9,11.3,25.1,25.1,25.1h9.1v35.3h-21
		c-6.9-19.9-25.8-34.2-48-34.2s-41.1,14.3-48,34.2h-3.9v-60.4c0-4.4-3.6-8-8-8c-4.4,0-8,3.6-8,8v60.4H196.3
		c-6.9-19.9-25.8-34.2-48-34.2c-22.2,0-41.1,14.3-48,34.2H54.3c-0.3,0-0.5-0.2-0.5-0.5V353h34.7c4.4,0,8-3.6,8-8s-3.6-8-8-8h-77
		c-4.4,0-8,3.6-8,8s3.6,8,8,8h26.2v17.6c0,9.1,7.4,16.6,16.6,16.6h43.3c0,0.2,0,0.4,0,0.5c0,28,22.8,50.8,50.8,50.8
		c28,0,50.8-22.8,50.8-50.8c0-0.2,0-0.4,0-0.5h180.7c0,0.2,0,0.4,0,0.5c0,28,22.8,50.8,50.8,50.8s50.8-22.8,50.8-50.8
		c0-0.2,0-0.4,0-0.5h26.2c4.4,0,8-3.6,8-8v-85.5C515.5,272.6,499.9,255,479.7,252 M176.4,86.1c-31.6-19.7-41-28.7-43.8-32.3
		c-7.1-9.3-5.3-22.7,4-29.9c3.8-2.9,8.4-4.4,12.9-4.4c6.4,0,12.8,2.9,17,8.4c7.8,10.2,19.9,44.4,27.9,69.1
		C189,93.8,182.8,90,176.4,86.1 M222,97c8-24.7,20.2-58.9,27.9-69.1c7.1-9.3,20.5-11.1,29.9-4c9.3,7.1,11.1,20.5,4,29.9
		c-2.8,3.6-12.2,12.7-43.8,32.3C233.6,90,227.4,93.8,222,97 M378.7,164.9h60.4c9.7,0,17.6,7.9,17.6,17.6v0.5h-78V164.9z
		 M378.7,251.5v-52.4h71.2l13.1,52.4H378.7z M148.3,422.5c-19.2,0-34.7-15.6-34.7-34.7c0-19.2,15.6-34.7,34.7-34.7
		s34.7,15.6,34.7,34.7C183.1,406.9,167.5,422.5,148.3,422.5 M430.5,422.5c-19.2,0-34.7-15.6-34.7-34.7c0-19.2,15.6-34.7,34.7-34.7
		s34.7,15.6,34.7,34.7C465.3,406.9,449.7,422.5,430.5,422.5 M499.5,319.9h-9.1c-5,0-9.1-4.1-9.1-9.1v-9.1h18.2L499.5,319.9
		L499.5,319.9z"/>
	<path class="st1" d="M479.7,252l-13.3-53c3.6-0.8,6.3-4,6.3-7.8v-8.6c0-18.6-15.1-33.7-33.7-33.7h-60.4v-17.6
		c0-9.1-7.4-16.6-16.6-16.6H249.8l68.2-27.3c4.1-1.6,6.1-6.3,4.5-10.4c-1.6-4.1-6.3-6.1-10.4-4.5l-55.9,22.3
		c17-10.9,33.9-22.9,40.3-31.4c12.5-16.4,9.3-39.8-7-52.3c-16.4-12.5-39.8-9.3-52.3,7c-9.1,12-21.2,45.6-28.9,69.3
		c-7.8-23.7-19.8-57.3-28.9-69.3c-12.5-16.4-36-19.5-52.3-7c-16.4,12.5-19.5,36-7,52.3c6.4,8.4,23.3,20.4,40.3,31.4l-55.9-22.3
		c-4.1-1.6-8.8,0.4-10.4,4.5c-1.6,4.1,0.4,8.8,4.5,10.4l68.2,27.3H54.3c-9.1,0-16.6,7.4-16.6,16.6v145.4c0,4.4,3.6,8,8,8
		c4.4,0,8-3.6,8-8V131.2c0-0.3,0.2-0.5,0.5-0.5h307.8c0.3,0,0.5,0.2,0.5,0.5v145.4c0,4.4,3.6,8,8,8c4.4,0,8-3.6,8-8v-9.1h94.6
		c0,0,0,0,0,0s0,0,0,0c11.6,0,21.5,7.6,24.9,18.2h-24.9c-4.4,0-8,3.6-8,8v17.1c0,13.9,11.3,25.1,25.1,25.1h9.1v35.3h-21
		c-6.9-19.9-25.8-34.2-48-34.2s-41.1,14.3-48,34.2h-3.9v-60.4c0-4.4-3.6-8-8-8c-4.4,0-8,3.6-8,8v60.4H196.3
		c-6.9-19.9-25.8-34.2-48-34.2c-22.2,0-41.1,14.3-48,34.2H54.3c-0.3,0-0.5-0.2-0.5-0.5V353h34.7c4.4,0,8-3.6,8-8s-3.6-8-8-8h-77
		c-4.4,0-8,3.6-8,8s3.6,8,8,8h26.2v17.6c0,9.1,7.4,16.6,16.6,16.6h43.3c0,0.2,0,0.4,0,0.5c0,28,22.8,50.8,50.8,50.8
		c28,0,50.8-22.8,50.8-50.8c0-0.2,0-0.4,0-0.5h180.7c0,0.2,0,0.4,0,0.5c0,28,22.8,50.8,50.8,50.8s50.8-22.8,50.8-50.8
		c0-0.2,0-0.4,0-0.5h26.2c4.4,0,8-3.6,8-8v-85.5C515.5,272.6,499.9,255,479.7,252z M176.4,86.1c-31.6-19.7-41-28.7-43.8-32.3
		c-7.1-9.3-5.3-22.7,4-29.9c3.8-2.9,8.4-4.4,12.9-4.4c6.4,0,12.8,2.9,17,8.4c7.8,10.2,19.9,44.4,27.9,69.1
		C189,93.8,182.8,90,176.4,86.1z M222,97c8-24.7,20.2-58.9,27.9-69.1c7.1-9.3,20.5-11.1,29.9-4c9.3,7.1,11.1,20.5,4,29.9
		c-2.8,3.6-12.2,12.7-43.8,32.3C233.6,90,227.4,93.8,222,97z M378.7,164.9h60.4c9.7,0,17.6,7.9,17.6,17.6v0.5h-78V164.9z
		 M378.7,251.5v-52.4h71.2l13.1,52.4H378.7z M148.3,422.5c-19.2,0-34.7-15.6-34.7-34.7c0-19.2,15.6-34.7,34.7-34.7
		s34.7,15.6,34.7,34.7C183.1,406.9,167.5,422.5,148.3,422.5z M430.5,422.5c-19.2,0-34.7-15.6-34.7-34.7c0-19.2,15.6-34.7,34.7-34.7
		s34.7,15.6,34.7,34.7C465.3,406.9,449.7,422.5,430.5,422.5z M499.5,319.9h-9.1c-5,0-9.1-4.1-9.1-9.1v-9.1h18.2L499.5,319.9
		L499.5,319.9z"/>
	<path class="st0" d="M148.3,371.2c-9.1,0-16.6,7.4-16.6,16.6c0,9.1,7.4,16.6,16.6,16.6c9.1,0,16.6-7.4,16.6-16.6
		C164.9,378.6,157.5,371.2,148.3,371.2"/>
	<path class="st2" d="M148.3,371.2c-9.1,0-16.6,7.4-16.6,16.6c0,9.1,7.4,16.6,16.6,16.6c9.1,0,16.6-7.4,16.6-16.6
		C164.9,378.6,157.5,371.2,148.3,371.2z"/>
	<path class="st0" d="M430.5,371.2c-9.1,0-16.6,7.4-16.6,16.6c0,9.1,7.4,16.6,16.6,16.6c9.1,0,16.6-7.4,16.6-16.6
		C447.1,378.6,439.7,371.2,430.5,371.2"/>
	<path class="st2" d="M430.5,371.2c-9.1,0-16.6,7.4-16.6,16.6c0,9.1,7.4,16.6,16.6,16.6c9.1,0,16.6-7.4,16.6-16.6
		C447.1,378.6,439.7,371.2,430.5,371.2z"/>
	<path class="st0" d="M336.5,337H216.7c-4.4,0-8,3.6-8,8c0,4.4,3.6,8,8,8h119.7c4.4,0,8-3.6,8-8C344.5,340.6,340.9,337,336.5,337"/>
	<path class="st2" d="M336.5,337H216.7c-4.4,0-8,3.6-8,8c0,4.4,3.6,8,8,8h119.7c4.4,0,8-3.6,8-8C344.5,340.6,340.9,337,336.5,337z"
		/>
	<path class="st0" d="M131.2,302.8H28.6c-4.4,0-8,3.6-8,8c0,4.4,3.6,8,8,8h102.6c4.4,0,8-3.6,8-8
		C139.3,306.4,135.7,302.8,131.2,302.8"/>
	<path class="st2" d="M131.2,302.8H28.6c-4.4,0-8,3.6-8,8c0,4.4,3.6,8,8,8h102.6c4.4,0,8-3.6,8-8
		C139.3,306.4,135.7,302.8,131.2,302.8z"/>
	<path class="st0" d="M131.2,183.1H97c-4.4,0-8,3.6-8,8v68.4c0,4.4,3.6,8,8,8c4.4,0,8-3.6,8-8v-26.2h17.6c4.4,0,8-3.6,8-8
		c0-4.4-3.6-8-8-8H105v-18.2h26.2c4.4,0,8-3.6,8-8C139.2,186.7,135.7,183.1,131.2,183.1"/>
	<path class="st3" d="M131.2,183.1H97c-4.4,0-8,3.6-8,8v68.4c0,4.4,3.6,8,8,8c4.4,0,8-3.6,8-8v-26.2h17.6c4.4,0,8-3.6,8-8
		c0-4.4-3.6-8-8-8H105v-18.2h26.2c4.4,0,8-3.6,8-8C139.2,186.7,135.7,183.1,131.2,183.1z"/>
	<path class="st0" d="M194.3,237.1c8-5.3,13.3-14.3,13.3-24.6c0-16.2-13.2-29.4-29.4-29.4h-21.4c-4.4,0-8,3.6-8,8v68.4
		c0,4.4,3.6,8,8,8s8-3.6,8-8v-17.6h13.3l14.7,22.1c1.5,2.3,4.1,3.6,6.7,3.6c1.5,0,3.1-0.4,4.4-1.3c3.7-2.5,4.7-7.4,2.2-11.1
		L194.3,237.1z M178.3,225.8h-13.4v-26.7h13.4c7.4,0,13.4,6,13.4,13.4S185.6,225.8,178.3,225.8"/>
	<path class="st3" d="M194.3,237.1c8-5.3,13.3-14.3,13.3-24.6c0-16.2-13.2-29.4-29.4-29.4h-21.4c-4.4,0-8,3.6-8,8v68.4
		c0,4.4,3.6,8,8,8s8-3.6,8-8v-17.6h13.3l14.7,22.1c1.5,2.3,4.1,3.6,6.7,3.6c1.5,0,3.1-0.4,4.4-1.3c3.7-2.5,4.7-7.4,2.2-11.1
		L194.3,237.1z M178.3,225.8h-13.4v-26.7h13.4c7.4,0,13.4,6,13.4,13.4S185.6,225.8,178.3,225.8z"/>
	<path class="st0" d="M259.5,251.5h-26.2v-18.2c0.2,0,0.4,0,0.5,0h17.1c4.4,0,8-3.6,8-8c0-4.4-3.6-8-8-8h-17.1c-0.2,0-0.4,0-0.5,0
		v-18.2h26.2c4.4,0,8-3.6,8-8c0-4.4-3.6-8-8-8h-34.2c-4.4,0-8,3.6-8,8v68.4c0,4.4,3.6,8,8,8h34.2c4.4,0,8-3.6,8-8
		C267.5,255.1,263.9,251.5,259.5,251.5"/>
	<path class="st3" d="M259.5,251.5h-26.2v-18.2c0.2,0,0.4,0,0.5,0h17.1c4.4,0,8-3.6,8-8c0-4.4-3.6-8-8-8h-17.1c-0.2,0-0.4,0-0.5,0
		v-18.2h26.2c4.4,0,8-3.6,8-8c0-4.4-3.6-8-8-8h-34.2c-4.4,0-8,3.6-8,8v68.4c0,4.4,3.6,8,8,8h34.2c4.4,0,8-3.6,8-8
		C267.5,255.1,263.9,251.5,259.5,251.5z"/>
	<path class="st0" d="M319.4,251.5h-26.2v-18.2h9.1c4.4,0,8-3.6,8-8c0-4.4-3.6-8-8-8h-9.1v-18.2h26.2c4.4,0,8-3.6,8-8
		c0-4.4-3.6-8-8-8h-34.2c-4.4,0-8,3.6-8,8v68.4c0,4.4,3.6,8,8,8h34.2c4.4,0,8-3.6,8-8C327.4,255.1,323.8,251.5,319.4,251.5"/>
	<path class="st3" d="M319.4,251.5h-26.2v-18.2h9.1c4.4,0,8-3.6,8-8c0-4.4-3.6-8-8-8h-9.1v-18.2h26.2c4.4,0,8-3.6,8-8
		c0-4.4-3.6-8-8-8h-34.2c-4.4,0-8,3.6-8,8v68.4c0,4.4,3.6,8,8,8h34.2c4.4,0,8-3.6,8-8C327.4,255.1,323.8,251.5,319.4,251.5z"/>
</g>
</svg>
