<?xml version="1.0" encoding="utf-8"?>
<!-- Generator: Adobe Illustrator 22.0.1, SVG Export Plug-In . SVG Version: 6.00 Build 0)  -->
<svg version="1.1" id="Layer_1" xmlns="http://www.w3.org/2000/svg" xmlns:xlink="http://www.w3.org/1999/xlink" x="0px" y="0px"
	 viewBox="0 0 401.5 450.4" style="enable-background:new 0 0 401.5 450.4;" xml:space="preserve">
<style type="text/css">
	.st0{clip-path:url(#SVGID_2_);fill:#F58220;}
	.st1{clip-path:url(#SVGID_4_);fill:none;stroke:#F58220;stroke-width:11;stroke-miterlimit:10;}
	.st2{clip-path:url(#SVGID_6_);fill:#F58220;}
	.st3{clip-path:url(#SVGID_8_);fill:none;stroke:#F58220;stroke-width:11;stroke-miterlimit:10;}
	.st4{clip-path:url(#SVGID_10_);fill:#F58220;}
	.st5{clip-path:url(#SVGID_12_);fill:none;stroke:#F58220;stroke-width:11;stroke-miterlimit:10;}
	.st6{clip-path:url(#SVGID_14_);fill:#F58220;}
	.st7{clip-path:url(#SVGID_16_);fill:none;stroke:#F58220;stroke-width:11;stroke-miterlimit:10;}
	.st8{clip-path:url(#SVGID_18_);fill:#F58220;}
	.st9{clip-path:url(#SVGID_20_);fill:none;stroke:#F58220;stroke-width:11;stroke-miterlimit:10;}
	.st10{clip-path:url(#SVGID_22_);fill:#F58220;}
	.st11{clip-path:url(#SVGID_24_);fill:none;stroke:#F58220;stroke-width:11;stroke-miterlimit:10;}
</style>
<g>
	<g>
		<g>
			<g>
				<defs>
					<rect id="SVGID_1_" x="12.2" y="16.5" width="369.5" height="417.3"/>
				</defs>
				<clipPath id="SVGID_2_">
					<use xlink:href="#SVGID_1_"  style="overflow:visible;"/>
				</clipPath>
				<path class="st0" d="M260.9,149.3c-0.9-2.8-3.5-5-6.5-5.4l-34.7-5l-15.6-31.4c-1.4-2.7-4.1-4.5-7.1-4.5l0,0
					c-3,0-5.8,1.7-7.1,4.5l-15.5,31.4l-34.7,5c-3,0.5-5.5,2.6-6.5,5.4c-0.9,2.8-0.2,6,2,8.3l25.1,24.5l-5.9,34.6
					c-0.6,3,0.7,6,3.2,7.8c1.4,1,3,1.6,4.7,1.6c1.3,0,2.6-0.4,3.8-0.8l31-16.3l31,16.2c2.7,1.5,6,1.2,8.3-0.6
					c2.5-1.7,3.7-4.8,3.2-7.8l-5.9-34.6l25.1-24.5C261.1,155.4,261.7,152.2,260.9,149.3 M219.6,173.5c-1.9,1.8-2.7,4.5-2.3,7.1
					l3.8,22.7l-20.4-10.7c-2.3-1.2-5.1-1.2-7.4,0l-20.4,10.8l3.8-22.7c0.6-2.6-0.5-5.3-2.3-7.1l-16.5-16.1l22.9-3.4
					c2.6-0.5,4.9-2,6-4.4l10.2-20.7l10.2,20.7c1.2,2.4,3.5,3.9,6,4.4l22.9,3.4L219.6,173.5z"/>
			</g>
		</g>
	</g>
	<g>
		<g>
			<g>
				<defs>
					<rect id="SVGID_3_" x="12.2" y="16.5" width="369.5" height="417.3"/>
				</defs>
				<clipPath id="SVGID_4_">
					<use xlink:href="#SVGID_3_"  style="overflow:visible;"/>
				</clipPath>
				<path class="st1" d="M260.9,149.3c-0.9-2.8-3.5-5-6.5-5.4l-34.7-5l-15.6-31.4c-1.4-2.7-4.1-4.5-7.1-4.5l0,0
					c-3,0-5.8,1.7-7.1,4.5l-15.5,31.4l-34.7,5c-3,0.5-5.5,2.6-6.5,5.4c-0.9,2.8-0.2,6,2,8.3l25.1,24.5l-5.9,34.6
					c-0.6,3,0.7,6,3.2,7.8c1.4,1,3,1.6,4.7,1.6c1.3,0,2.6-0.4,3.8-0.8l31-16.3l31,16.2c2.7,1.5,6,1.2,8.3-0.6
					c2.5-1.7,3.7-4.8,3.2-7.8l-5.9-34.6l25.1-24.5C261.1,155.4,261.7,152.2,260.9,149.3z M219.6,173.5c-1.9,1.8-2.7,4.5-2.3,7.1
					l3.8,22.7l-20.4-10.7c-2.3-1.2-5.1-1.2-7.4,0l-20.4,10.8l3.8-22.7c0.6-2.6-0.5-5.3-2.3-7.1l-16.5-16.1l22.9-3.4
					c2.6-0.5,4.9-2,6-4.4l10.2-20.7l10.2,20.7c1.2,2.4,3.5,3.9,6,4.4l22.9,3.4L219.6,173.5z"/>
			</g>
		</g>
	</g>
	<g>
		<g>
			<g>
				<defs>
					<rect id="SVGID_5_" x="12.2" y="16.5" width="369.5" height="417.3"/>
				</defs>
				<clipPath id="SVGID_6_">
					<use xlink:href="#SVGID_5_"  style="overflow:visible;"/>
				</clipPath>
				<path class="st2" d="M376.3,371.7l-66-114.8c20-24.9,31.8-56.5,31.8-90.7C342.2,86,277,21,196.9,21S51.7,86,51.7,166.2
					c0,34.2,11.9,65.8,31.8,90.7L17.7,371.7c-1.6,2.6-1.5,5.9,0.4,8.4c1.6,2.6,4.7,3.8,7.7,3.5l51.4-6.9l19.8,48
					c1.2,2.7,3.8,4.7,6.8,5c0.2,0,0.4,0,0.6,0c2.8,0,5.5-1.6,6.9-3.9l66.5-115.3c0,0,0,0,0-0.1c6.3,0.8,12.7,1.3,19.2,1.3
					c6.7,0,12.9-0.5,19.2-1.3c0,0,0,0,0,0.1l66.6,115.3c1.5,2.5,4,3.9,6.9,3.9c0.2,0,0.4,0,0.6,0c3-0.3,5.7-2.1,6.8-5l19.8-48
					l51.4,6.9c3,0.5,6-0.9,7.7-3.5C377.7,377.6,377.8,374.3,376.3,371.7 M105.4,403.6l-14.4-34.9l12.9-21.1c2.3-3.8,1.1-8.7-2.6-11
					c-3.8-2.3-8.7-1.1-11,2.6l-13.1,21.3l-37.8,5.1l55.4-96.1c18.2,18,40.9,31.1,66.3,37.7L105.4,403.6z M197,295.5
					c-71.2,0-129.3-58-129.3-129.3S125.8,37,197,37s129.3,58,129.3,129.3S268.3,295.5,197,295.5 M316.6,360.4l-13-21.3
					c-2.3-3.8-7.1-5-11-2.6c-3.8,2.3-5,7.1-2.6,11l12.9,21.1l-14.3,35L232.9,307c25.4-6.5,48.3-19.7,66.3-37.7l55.3,96.1
					L316.6,360.4z"/>
			</g>
		</g>
	</g>
	<g>
		<g>
			<g>
				<defs>
					<rect id="SVGID_7_" x="12.2" y="16.5" width="369.5" height="417.3"/>
				</defs>
				<clipPath id="SVGID_8_">
					<use xlink:href="#SVGID_7_"  style="overflow:visible;"/>
				</clipPath>
				<path class="st3" d="M376.3,371.7l-66-114.8c20-24.9,31.8-56.5,31.8-90.7C342.2,86,277,21,196.9,21S51.7,86,51.7,166.2
					c0,34.2,11.9,65.8,31.8,90.7L17.7,371.7c-1.6,2.6-1.5,5.9,0.4,8.4c1.6,2.6,4.7,3.8,7.7,3.5l51.4-6.9l19.8,48
					c1.2,2.7,3.8,4.7,6.8,5c0.2,0,0.4,0,0.6,0c2.8,0,5.5-1.6,6.9-3.9l66.5-115.3c0,0,0,0,0-0.1c6.3,0.8,12.7,1.3,19.2,1.3
					c6.7,0,12.9-0.5,19.2-1.3c0,0,0,0,0,0.1l66.6,115.3c1.5,2.5,4,3.9,6.9,3.9c0.2,0,0.4,0,0.6,0c3-0.3,5.7-2.1,6.8-5l19.8-48
					l51.4,6.9c3,0.5,6-0.9,7.7-3.5C377.7,377.6,377.8,374.3,376.3,371.7z M105.4,403.6l-14.4-34.9l12.9-21.1c2.3-3.8,1.1-8.7-2.6-11
					c-3.8-2.3-8.7-1.1-11,2.6l-13.1,21.3l-37.8,5.1l55.4-96.1c18.2,18,40.9,31.1,66.3,37.7L105.4,403.6z M197,295.5
					c-71.2,0-129.3-58-129.3-129.3S125.8,37,197,37s129.3,58,129.3,129.3S268.3,295.5,197,295.5z M316.6,360.4l-13-21.3
					c-2.3-3.8-7.1-5-11-2.6c-3.8,2.3-5,7.1-2.6,11l12.9,21.1l-14.3,35L232.9,307c25.4-6.5,48.3-19.7,66.3-37.7l55.3,96.1
					L316.6,360.4z"/>
			</g>
		</g>
	</g>
	<g>
		<g>
			<g>
				<defs>
					<rect id="SVGID_9_" x="12.2" y="16.5" width="369.5" height="417.3"/>
				</defs>
				<clipPath id="SVGID_10_">
					<use xlink:href="#SVGID_9_"  style="overflow:visible;"/>
				</clipPath>
				<path class="st4" d="M197,62.5c-17.8,0-35.4,4.7-50.8,13.2c-3.8,2.2-5.2,7-3,10.9c2.2,3.8,7,5.2,10.9,3
					c13-7.3,28-11.3,43.1-11.3c48.4,0,87.8,39.3,87.8,87.8c0,13.2-2.8,25.9-8.5,37.8c-1.9,3.9-0.3,8.8,3.8,10.6
					c1.1,0.6,2.3,0.8,3.5,0.8c2.9,0,5.8-1.6,7.1-4.6c6.8-14,10-29.1,10-44.6C300.7,109,254.2,62.5,197,62.5"/>
			</g>
		</g>
	</g>
	<g>
		<g>
			<g>
				<defs>
					<rect id="SVGID_11_" x="12.2" y="16.5" width="369.5" height="417.3"/>
				</defs>
				<clipPath id="SVGID_12_">
					<use xlink:href="#SVGID_11_"  style="overflow:visible;"/>
				</clipPath>
				<path class="st5" d="M197,62.5c-17.8,0-35.4,4.7-50.8,13.2c-3.8,2.2-5.2,7-3,10.9c2.2,3.8,7,5.2,10.9,3
					c13-7.3,28-11.3,43.1-11.3c48.4,0,87.8,39.3,87.8,87.8c0,13.2-2.8,25.9-8.5,37.8c-1.9,3.9-0.3,8.8,3.8,10.6
					c1.1,0.6,2.3,0.8,3.5,0.8c2.9,0,5.8-1.6,7.1-4.6c6.8-14,10-29.1,10-44.6C300.7,109,254.2,62.5,197,62.5z"/>
			</g>
		</g>
	</g>
	<g>
		<g>
			<g>
				<defs>
					<rect id="SVGID_13_" x="12.2" y="16.5" width="369.5" height="417.3"/>
				</defs>
				<clipPath id="SVGID_14_">
					<use xlink:href="#SVGID_13_"  style="overflow:visible;"/>
				</clipPath>
				<path class="st6" d="M271.3,227.2c-3.2-3-8.3-3-11.3,0.2l-0.2,0.2c-3.1,3.2-3,8.3,0.2,11.3c1.6,1.6,3.7,2.3,5.6,2.3
					c2.1,0,4.1-0.8,5.7-2.4l0.3-0.3C274.6,235.4,274.5,230.3,271.3,227.2"/>
			</g>
		</g>
	</g>
	<g>
		<g>
			<g>
				<defs>
					<rect id="SVGID_15_" x="12.2" y="16.5" width="369.5" height="417.3"/>
				</defs>
				<clipPath id="SVGID_16_">
					<use xlink:href="#SVGID_15_"  style="overflow:visible;"/>
				</clipPath>
				<path class="st7" d="M271.3,227.2c-3.2-3-8.3-3-11.3,0.2l-0.2,0.2c-3.1,3.2-3,8.3,0.2,11.3c1.6,1.6,3.7,2.3,5.6,2.3
					c2.1,0,4.1-0.8,5.7-2.4l0.3-0.3C274.6,235.4,274.5,230.3,271.3,227.2z"/>
			</g>
		</g>
	</g>
	<g>
		<g>
			<g>
				<defs>
					<rect id="SVGID_17_" x="12.2" y="16.5" width="369.5" height="417.3"/>
				</defs>
				<clipPath id="SVGID_18_">
					<use xlink:href="#SVGID_17_"  style="overflow:visible;"/>
				</clipPath>
				<path class="st8" d="M250.2,246.3c-2.2-3.8-6.9-5.3-10.9-3.1c-12.9,7.1-27.6,10.9-42.3,10.9c-48.4,0-87.8-39.3-87.8-87.8
					c0-12.7,2.6-24.9,7.8-36.3c1.8-3.9,0.1-8.8-3.9-10.5c-3.9-1.8-8.8-0.1-10.5,3.9c-6.1,13.6-9.3,28-9.3,43
					c0,57.2,46.5,103.7,103.7,103.7c17.4,0,34.8-4.5,50.1-12.9C250.8,255.1,252.2,250.1,250.2,246.3"/>
			</g>
		</g>
	</g>
	<g>
		<g>
			<g>
				<defs>
					<rect id="SVGID_19_" x="12.2" y="16.5" width="369.5" height="417.3"/>
				</defs>
				<clipPath id="SVGID_20_">
					<use xlink:href="#SVGID_19_"  style="overflow:visible;"/>
				</clipPath>
				<path class="st9" d="M250.2,246.3c-2.2-3.8-6.9-5.3-10.9-3.1c-12.9,7.1-27.6,10.9-42.3,10.9c-48.4,0-87.8-39.3-87.8-87.8
					c0-12.7,2.6-24.9,7.8-36.3c1.8-3.9,0.1-8.8-3.9-10.5c-3.9-1.8-8.8-0.1-10.5,3.9c-6.1,13.6-9.3,28-9.3,43
					c0,57.2,46.5,103.7,103.7,103.7c17.4,0,34.8-4.5,50.1-12.9C250.8,255.1,252.2,250.1,250.2,246.3z"/>
			</g>
		</g>
	</g>
	<g>
		<g>
			<g>
				<defs>
					<rect id="SVGID_21_" x="12.2" y="16.5" width="369.5" height="417.3"/>
				</defs>
				<clipPath id="SVGID_22_">
					<use xlink:href="#SVGID_21_"  style="overflow:visible;"/>
				</clipPath>
				<path class="st10" d="M132.4,95.1c-3.2-3-8.3-2.7-11.3,0.5l-0.2,0.2c-3,3.3-2.7,8.3,0.5,11.3c1.6,1.5,3.6,2.2,5.4,2.2
					c2.2,0,4.3-0.8,5.8-2.6l0.2-0.2C135.7,103.2,135.6,98.1,132.4,95.1"/>
			</g>
		</g>
	</g>
	<g>
		<g>
			<g>
				<defs>
					<rect id="SVGID_23_" x="12.2" y="16.5" width="369.5" height="417.3"/>
				</defs>
				<clipPath id="SVGID_24_">
					<use xlink:href="#SVGID_23_"  style="overflow:visible;"/>
				</clipPath>
				<path class="st11" d="M132.4,95.1c-3.2-3-8.3-2.7-11.3,0.5l-0.2,0.2c-3,3.3-2.7,8.3,0.5,11.3c1.6,1.5,3.6,2.2,5.4,2.2
					c2.2,0,4.3-0.8,5.8-2.6l0.2-0.2C135.7,103.2,135.6,98.1,132.4,95.1z"/>
			</g>
		</g>
	</g>
</g>
</svg>
